<?xml version="1.0" encoding="utf-8"?>
<!-- Generator: Adobe Illustrator 25.0.0, SVG Export Plug-In . SVG Version: 6.00 Build 0)  -->
<svg version="1.1" id="Layer_1" xmlns="http://www.w3.org/2000/svg" xmlns:xlink="http://www.w3.org/1999/xlink" x="0px" y="0px"
	 viewBox="0 0 1024 1024" style="enable-background:new 0 0 1024 1024;" xml:space="preserve">
<style type="text/css">
	.st0{fill:#0D86FF;}
</style>
<path class="st0" d="M938.6,449.6c5.3-5.8,5.5-14.7,0.2-20.7c-44.6-50.9-109-80.1-176.6-80.1l-106.4,0c-7.8,0-14.2,5.7-15.3,13.2
	l-113.5,0V119h-32v243.1l-111.3,0c-1.1-7.5-7.5-13.2-15.3-13.2l-106.7,0c-67.6,0-132,29.2-176.6,80.1c-5.2,6-5.1,14.8,0.2,20.6
	C51.9,491,33.7,542.2,33.7,596.3c0,62.6,24.4,121.4,68.6,165.6c44.2,44.3,103.1,68.6,165.6,68.6c50.1,0,98.1-15.7,138.7-45.4
	c1.9-1.4,4.4-2.1,6.9-2.1h196.8c2.5,0,5,0.7,6.9,2.1c40.7,29.8,88.6,45.5,138.7,45.5c62.6,0,121.4-24.4,165.6-68.6
	c44.2-44.2,68.6-103.1,68.6-165.6C990.2,542.3,972,491.1,938.6,449.6z M756,800.6c-43.7,0-85.5-13.7-121-39.6
	c-7.1-5.2-15.7-7.9-24.6-7.9H413.5c-9,0-17.5,2.7-24.6,7.9c-35.5,26-77.3,39.7-121,39.7c-112.6,0-204.2-91.6-204.2-204.3
	c0-112.6,91.6-204.2,204.2-204.2l488.1,0c112.6,0,204.2,91.6,204.2,204.2S868.6,800.6,756,800.6z"/>
<path class="st0" d="M267.9,457.6c-76.5,0-138.7,62.2-138.7,138.7S191.4,735,267.9,735s138.7-62.2,138.7-138.7
	S344.4,457.6,267.9,457.6z M267.9,715c-65.4,0-118.7-53.2-118.7-118.7s53.2-118.7,118.7-118.7s118.7,53.2,118.7,118.7
	S333.3,715,267.9,715z M490.8,611.8c-3.7-3.7-9.6-3.7-13.3,0l-31.5,31.5c-3.7,3.7-3.7,9.6,0,13.3l1.7,1.7c3.7,3.7,9.6,3.7,13.3,0
	l31.5-31.5c3.7-3.7,3.7-9.6,0-13.3L490.8,611.8z M552.5,617.4c-3.7-3.7-9.6-3.7-13.3,0l-31.5,31.5c-3.7,3.7-3.7,9.6,0,13.3l1.7,1.7
	c3.7,3.7,9.6,3.7,13.3,0l31.5-31.5c3.7-3.7,3.7-9.6,0-13.3L552.5,617.4z"/>
<path class="st0" d="M329.7,577H289v-40.9c0-4.6-4.1-8.1-8.7-8.1h-24.7c-4.6,0-8.5,3.4-8.5,8.1V577h-40.9c-4.6,0-8.1,3.8-8.1,8.5
	v24.7c0,4.6,3.5,8.8,8.1,8.8H247v40.6c0,4.6,3.9,8.4,8.5,8.4h24.7c4.6,0,8.7-3.7,8.7-8.4V619h40.7c4.6,0,8.3-4.1,8.3-8.8v-24.7
	C338,580.8,334.3,577,329.7,577z M756,428c-92.9,0-168.3,75.3-168.3,168.3S663.1,764.6,756,764.6s168.3-75.3,168.3-168.3
	S848.9,428,756,428z M646.5,624.3L646.5,624.3c-15.2-15.2-15.2-40,0-55.2l80.8-80.8c15.2-15.2,40-15.2,55.2,0l0,0
	c15.2,15.2,15.2,40,0,55.2l-80.8,80.8C686.5,639.5,661.7,639.5,646.5,624.3z M864.1,625l-80.8,80.8c-15.2,15.2-40,15.2-55.2,0l0,0
	c-15.2-15.2-15.2-40,0-55.2l80.8-80.8c15.2-15.2,40-15.2,55.2,0S879.3,609.8,864.1,625z"/>
<circle class="st0" cx="674.3" cy="596.1" r="28.4"/>
<circle class="st0" cx="752.6" cy="517.7" r="28.4"/>
<circle class="st0" cx="755.8" cy="677.6" r="28.4"/>
<circle class="st0" cx="834.1" cy="599.2" r="28.4"/>
</svg>
